<svg xmlns="http://www.w3.org/2000/svg" viewBox="0 0 64 64">
  <defs>
    <linearGradient id="card-bg" x1="0" x2="0" y1="0" y2="1">
      <stop offset="0%" stop-color="#fff9df" />
      <stop offset="100%" stop-color="#f3efcf" />
    </linearGradient>
    <linearGradient id="compass-ring" x1="0" x2="0" y1="0" y2="1">
      <stop offset="0%" stop-color="#2b8753" />
      <stop offset="100%" stop-color="#1d7346" />
    </linearGradient>
    <linearGradient id="needle" x1="0" x2="1" y1="0" y2="1">
      <stop offset="0%" stop-color="#f7cf59" />
      <stop offset="100%" stop-color="#ea5a43" />
    </linearGradient>
  </defs>
  <rect width="64" height="64" rx="18" fill="#1d7346" opacity="0.08" />
  <g transform="rotate(-4 32 32)">
    <rect x="8" y="8" width="48" height="48" rx="14" fill="url(#card-bg)" />
    <circle cx="32" cy="32" r="13.5" fill="none" stroke="url(#compass-ring)" stroke-width="3.3" />
    <circle cx="32" cy="32" r="3.2" fill="#1d7346" />
    <path d="M32 20.2 37.6 31.3 32 29.2 26.4 31.3Z" fill="url(#needle)" />
    <path d="M32 43.8 26.4 32.7 32 34.8 37.6 32.7Z" fill="#1d7346" />
    <path d="M32 14.9v3.9M32 45.2v3.9M14.9 32h3.9M45.2 32h3.9" stroke="#1d7346" stroke-linecap="round" stroke-width="2.1" />
    <circle cx="32" cy="32" r="17.4" fill="none" stroke="#1d7346" stroke-opacity="0.16" stroke-width="1.2" />
  </g>
</svg>
